<?xml version="1.0" encoding="UTF-8" standalone="no"?>
<svg width="100px" height="100px" viewBox="0 0 100 100" version="1.1" xmlns="http://www.w3.org/2000/svg" xmlns:xlink="http://www.w3.org/1999/xlink">
    <!-- Generator: Sketch 3.7.1 (28215) - http://www.bohemiancoding.com/sketch -->
    <title>Group 2</title>
    <desc>Created with Sketch.</desc>
    <defs>
        <path d="M50,24.9993227 C50,38.8041505 38.8041505,50 24.9993227,50 C11.1958495,50 0,38.8041505 0,24.9993227 C0,11.1944949 11.1958495,0 24.9993227,0 C38.8041505,0 50,11.1944949 50,24.9993227 Z" id="path-1"></path>
    </defs>
    <g id="Page-1" stroke="none" stroke-width="1" fill="none" fill-rule="evenodd">
        <g id="Open-Files" transform="translate(-700.000000, -1100.000000)">
            <rect id="Rectangle-6" x="700" y="1100" width="100" height="100"></rect>
            <g id="Layer_x0020_1" transform="translate(725.000000, 1125.000000)">
                <mask id="mask-2" fill="white">
                    <use xlink:href="#path-1"></use>
                </mask>
                <use id="Shape" fill="#FFFFFF" xlink:href="#path-1"></use>
                <path d="M47.5,24.9993904 C47.5,37.4237355 37.4237355,47.5 24.9993904,47.5 C12.5762645,47.5 2.5,37.4237355 2.5,24.9993904 C2.5,12.5750454 12.5762645,2.5 24.9993904,2.5 C37.4237355,2.5 47.5,12.5750454 47.5,24.9993904 Z" id="Shape" fill="#FFB100" mask="url(#mask-2)"></path>
                <path d="M34.299742,16.5050158 C33.9599424,16.1649947 33.4026179,16.1649947 33.0625968,16.5050158 L22.0895508,27.4787263 C21.7495297,27.8187474 21.1924267,27.8187474 20.8524056,27.4787263 L18.1497362,24.7762784 C17.8097151,24.4362573 17.2526121,24.4362573 16.912591,24.7762784 L15.2550158,26.4347397 C14.9149947,26.7747608 14.9149947,27.3318638 15.2550158,27.6718849 L20.8524056,33.2681671 C21.1924267,33.6081882 21.7495297,33.6081882 22.0895508,33.2681671 L35.9573172,19.3997362 C36.2975598,19.0594936 36.2975598,18.5026121 35.9573172,18.1623695 L34.299742,16.5050158 L34.299742,16.5050158 Z" id="Shape" fill="#FFFFFF" mask="url(#mask-2)"></path>
            </g>
        </g>
    </g>
</svg>